<?xml version="1.0" encoding="UTF-8"?> <svg xmlns="http://www.w3.org/2000/svg" width="804" height="201" viewBox="0 0 804 201" fill="none"> <path d="M797.927 6.12988H704.828C703.389 6.12988 702.022 6.71043 701.014 7.72639L678.693 30.2407C677.56 31.3837 678.369 33.343 679.97 33.343H722.383C724.361 33.343 725.98 34.9758 725.98 36.9714V109.54C725.98 112.551 728.39 114.982 731.376 114.982H747.564C750.55 114.982 752.96 112.551 752.96 109.54V36.9714C752.96 34.9758 754.579 33.343 756.557 33.343H797.927C800.913 33.343 803.323 30.912 803.323 27.9004V11.5725C803.323 8.56092 800.913 6.12988 797.927 6.12988Z" fill="#151515"></path> <path d="M678.474 6.12988H646.889C645.45 6.12988 644.083 6.71043 643.076 7.72639L574.888 76.503V11.5725C574.888 8.56092 572.478 6.12988 569.492 6.12988H553.304C550.318 6.12988 547.908 8.56092 547.908 11.5725V109.54C547.908 112.551 550.318 114.982 553.304 114.982H572.658C574.097 114.982 575.464 114.402 576.471 113.386L607.228 82.3629C608.631 80.9478 610.916 80.9478 612.319 82.3629L643.076 113.386C644.083 114.402 645.468 114.982 646.889 114.982H678.474C680.075 114.982 680.884 113.023 679.751 111.88L628.849 60.5561L679.733 9.23218C680.866 8.08923 680.075 6.12988 678.474 6.12988Z" fill="#151515"></path> <path d="M238.55 96.8418H292.511C294.489 96.8418 296.108 98.4746 296.108 100.47V109.541C296.108 112.553 298.518 114.984 301.504 114.984H317.692C320.678 114.984 323.088 112.553 323.088 109.541V100.47C323.088 98.4746 324.707 96.8418 326.685 96.8418H380.646C383.631 96.8418 386.042 94.4107 386.042 91.3992V11.574C386.042 8.56239 383.631 6.13135 380.646 6.13135H238.55C235.565 6.13135 233.154 8.56239 233.154 11.574V91.3992C233.154 94.4107 235.565 96.8418 238.55 96.8418ZM330.283 33.3445H351.867C355.842 33.3445 359.062 36.5919 359.062 40.6013V62.3718C359.062 66.3812 355.842 69.6287 351.867 69.6287H330.283C326.308 69.6287 323.088 66.3812 323.088 62.3718V40.6013C323.088 36.5919 326.308 33.3445 330.283 33.3445ZM267.329 33.3445H288.913C292.888 33.3445 296.108 36.5919 296.108 40.6013V62.3718C296.108 66.3812 292.888 69.6287 288.913 69.6287H267.329C263.354 69.6287 260.134 66.3812 260.134 62.3718V40.6013C260.134 36.5919 263.354 33.3445 267.329 33.3445Z" fill="#151515"></path> <path d="M404.021 109.54C404.021 112.551 406.432 114.982 409.418 114.982H425.606C428.591 114.982 431.002 112.551 431.002 109.54V100.469C431.002 98.4731 432.62 96.8403 434.599 96.8403H499.351C501.33 96.8403 502.949 98.4731 502.949 100.469V109.54C502.949 112.551 505.359 114.982 508.345 114.982H524.533C527.518 114.982 529.929 112.551 529.929 109.54V11.5725C529.929 8.56092 527.518 6.12988 524.533 6.12988H409.418C406.432 6.12988 404.021 8.56092 404.021 11.5725V109.54ZM438.196 33.343H495.754C499.729 33.343 502.949 36.5904 502.949 40.5998V62.3703C502.949 66.3798 499.729 69.6272 495.754 69.6272H438.196C434.221 69.6272 431.002 66.3798 431.002 62.3703V40.5998C431.002 36.5904 434.221 33.343 438.196 33.343Z" fill="#151515"></path> <path fill-rule="evenodd" clip-rule="evenodd" d="M5.31076 42.2823L39.7415 8.35236C41.86 6.2648 39.2121 3.65455 36.5632 4.6978C33.3849 5.21943 11.6652 11.4842 7.95647 12.5275C4.78033 13.0502 0.0128961 16.7047 0.0128961 19.8366V39.6774C0.0128961 42.2823 2.66183 44.8926 5.31076 42.2823ZM5.31076 88.7409C7.42926 86.1317 85.8321 9.39666 89.5397 5.74211C93.2474 2.08756 89.5397 0 86.3614 0C83.1831 0 69.4091 0.521625 66.7613 0.521625C65.4208 0.63465 64.1181 1.01726 62.9335 1.64583C61.749 2.27439 60.7078 3.13557 59.8742 4.17618C58.2851 5.22049 4.25419 58.4654 3.19118 59.5129C2.12818 60.5604 0.0128961 62.6374 0.0128961 65.7735V85.6101C0.0128961 88.7419 2.66183 91.3522 5.31076 88.7419V88.7409ZM128.212 7.30805C124.503 6.26374 115.498 3.65349 112.32 3.65349C109.143 3.65349 107.022 5.74105 105.964 6.78536L5.31076 105.968C3.60952 107.005 2.22097 108.471 1.28933 110.216C0.357694 111.96 -0.0830443 113.918 0.0128961 115.887C0.0128961 122.15 1.07268 123.716 1.60204 129.458C2.1314 135.2 6.8999 134.679 10.6075 131.546L131.39 12.5285C133.51 10.4399 131.92 8.35236 128.212 7.30805ZM152.58 40.1948C154.703 37.9248 155.844 34.9282 155.759 31.8424V18.7923C155.759 14.6161 149.931 12.0058 145.164 16.182L19.6131 139.898C14.8456 144.596 16.4348 148.251 19.6131 150.338C22.7913 152.426 24.3805 154.514 29.149 156.602C33.9175 158.689 35.5056 155.558 36.5654 154.514L152.58 40.1948ZM148.872 61.0757C146.223 63.6849 50.3394 157.651 47.16 161.301C43.4513 164.955 45.0415 167.564 47.6894 169.13C50.3372 170.696 57.7547 175.394 60.933 175.394C64.1112 175.394 65.171 174.873 66.2308 173.828L152.055 89.2635C153.115 88.2192 155.234 86.1317 155.234 82.9998V63.1664C155.759 59.5087 152.58 57.4211 148.872 61.0757ZM149.931 107.013C145.164 111.188 82.6538 173.311 79.4701 175.918C76.2918 179.05 76.2918 183.226 81.5886 181.66C86.8865 179.572 155.224 151.384 155.224 122.673V110.144C155.229 105.446 152.58 103.88 149.931 107.013Z" fill="#FE4B4B"></path> <path d="M267.048 182L262.056 169.968H243.88L238.76 182H233.512L253.16 137.264L272.296 182H267.048ZM245.736 165.488H260.2L253.032 148.4L245.736 165.488ZM277.165 155.44H281.773V166.32L292.525 155.44H298.157L286.637 167.28L299.565 182H293.549L283.181 170.352L281.773 171.696V182H277.165V155.44ZM324.517 159.216V155.44H329.125V182H324.517V178.288C322.213 181.275 319.183 182.768 315.429 182.768C311.845 182.768 308.794 181.531 306.277 179.056C303.759 176.581 302.501 173.125 302.501 168.688C302.501 164.336 303.738 160.944 306.213 158.512C308.73 156.037 311.802 154.8 315.429 154.8C319.269 154.8 322.298 156.272 324.517 159.216ZM315.941 158.896C313.509 158.896 311.439 159.771 309.733 161.52C308.069 163.227 307.237 165.616 307.237 168.688C307.237 171.632 308.005 174.043 309.541 175.92C311.119 177.755 313.253 178.672 315.941 178.672C318.629 178.672 320.762 177.712 322.341 175.792C323.962 173.872 324.773 171.525 324.773 168.752C324.773 165.595 323.877 163.163 322.085 161.456C320.293 159.749 318.245 158.896 315.941 158.896ZM339.772 155.44H358.46V177.776H362.428V189.04H358.204V182H337.98V189.04H333.756V177.776C335.975 177.733 337.617 176.581 338.684 174.32C339.409 172.827 339.772 170.48 339.772 167.28V155.44ZM353.852 177.776V159.664H344.38V169.648C344.38 173.189 343.313 175.899 341.18 177.776H353.852ZM387.002 173.104L390.842 175.216C389.946 176.923 388.858 178.352 387.578 179.504C385.146 181.68 382.202 182.768 378.746 182.768C375.162 182.768 372.068 181.616 369.466 179.312C366.906 176.965 365.626 173.488 365.626 168.88C365.626 164.827 366.778 161.477 369.082 158.832C371.428 156.144 374.564 154.8 378.49 154.8C382.927 154.8 386.276 156.421 388.538 159.664C390.33 162.224 391.162 165.552 391.034 169.648H370.362C370.404 172.336 371.236 174.512 372.858 176.176C374.479 177.84 376.463 178.672 378.81 178.672C380.9 178.672 382.714 178.032 384.25 176.752C385.444 175.728 386.362 174.512 387.002 173.104ZM370.682 165.808H386.298C385.914 163.717 384.996 162.053 383.546 160.816C382.138 159.536 380.452 158.896 378.49 158.896C376.57 158.896 374.863 159.557 373.37 160.88C371.919 162.16 371.023 163.803 370.682 165.808ZM395.03 182L401.43 153.392L412.438 175.024L423.19 153.392L429.59 182H424.854L421.334 165.552L412.31 183.856L403.158 165.552L399.766 182H395.03ZM435.227 155.44H439.835V172.976L458.011 153.392V182H453.403V164.272L435.227 183.856V155.44ZM463.655 182L471.911 171.056C471.655 171.056 471.292 171.013 470.823 170.928C470.396 170.843 469.756 170.629 468.903 170.288C468.05 169.947 467.346 169.499 466.791 168.944C465.383 167.621 464.679 165.851 464.679 163.632C464.679 161.115 465.468 159.131 467.047 157.68C468.626 156.187 471.228 155.44 474.855 155.44H484.135V182H479.527V171.312H476.711L469.159 182H463.655ZM479.527 167.472V159.536H475.239C473.234 159.536 471.847 159.771 471.079 160.24C469.97 160.965 469.415 162.053 469.415 163.504C469.415 164.955 469.97 166.021 471.079 166.704C471.89 167.216 473.255 167.472 475.175 167.472H479.527Z" fill="black"></path> </svg> 